<svg xmlns="http://www.w3.org/2000/svg" viewBox="0 0 42 42">
  <defs>
    <linearGradient id="g" x1="0" y1="0" x2="1" y2="1" gradientTransform="rotate(150 .5 .5)">
      <stop offset="0%" stop-color="#5b7cfa"/>
      <stop offset="100%" stop-color="#3a5bef"/>
    </linearGradient>
  </defs>
  <rect width="42" height="42" rx="11" fill="url(#g)"/>
  <!-- Triangle of three bidirectional arrows (scheme A). -->
  <g transform="translate(21 21)" fill="none" stroke="#fff" stroke-width="2" stroke-linecap="round" stroke-linejoin="round" vector-effect="non-scaling-stroke">
    <g transform="translate(0 4.4) scale(0.52)">
      <g transform="translate(-12 -12)">
        <path d="M17 7 21 11 17 15"/>
        <path d="M21 11H7"/>
        <path d="M7 17 3 13 7 9"/>
        <path d="M3 13H17"/>
      </g>
    </g>
    <g transform="rotate(120) translate(0 4.4) scale(0.52)">
      <g transform="translate(-12 -12)">
        <path d="M17 7 21 11 17 15"/>
        <path d="M21 11H7"/>
        <path d="M7 17 3 13 7 9"/>
        <path d="M3 13H17"/>
      </g>
    </g>
    <g transform="rotate(240) translate(0 4.4) scale(0.52)">
      <g transform="translate(-12 -12)">
        <path d="M17 7 21 11 17 15"/>
        <path d="M21 11H7"/>
        <path d="M7 17 3 13 7 9"/>
        <path d="M3 13H17"/>
      </g>
    </g>
  </g>
</svg>
