<svg xmlns="http://www.w3.org/2000/svg" viewBox="0 0 42 42">
  <defs>
    <!-- Match sidebar / login BrandMark badge: mint-teal soft-SaaS gradient -->
    <linearGradient id="g" x1="0" y1="0" x2="1" y2="1">
      <stop offset="0%" stop-color="#10b981"/>
      <stop offset="52%" stop-color="#14b8a6"/>
      <stop offset="100%" stop-color="#0d9488"/>
    </linearGradient>
  </defs>
  <!-- 42px badge; mark diameter ≈ 42/φ ≈ 26 → scale 26/24 ≈ 1.083 around center -->
  <rect width="42" height="42" rx="11" fill="url(#g)"/>
  <g transform="translate(21 21) scale(1.083)" fill="none" stroke="#fff" stroke-width="2.15" stroke-linecap="round" stroke-linejoin="round" vector-effect="non-scaling-stroke">
    <g transform="translate(0 5.5) scale(0.72)">
      <g transform="translate(-12 -12)">
        <path d="M17 7 21 11 17 15"/>
        <path d="M21 11H7"/>
        <path d="M7 17 3 13 7 9"/>
        <path d="M3 13H17"/>
      </g>
    </g>
    <g transform="rotate(120) translate(0 5.5) scale(0.72)">
      <g transform="translate(-12 -12)">
        <path d="M17 7 21 11 17 15"/>
        <path d="M21 11H7"/>
        <path d="M7 17 3 13 7 9"/>
        <path d="M3 13H17"/>
      </g>
    </g>
    <g transform="rotate(240) translate(0 5.5) scale(0.72)">
      <g transform="translate(-12 -12)">
        <path d="M17 7 21 11 17 15"/>
        <path d="M21 11H7"/>
        <path d="M7 17 3 13 7 9"/>
        <path d="M3 13H17"/>
      </g>
    </g>
  </g>
</svg>
